<svg width="24" height="24" viewBox="0 0 24 24" fill="none" xmlns="http://www.w3.org/2000/svg">
<path fill-rule="evenodd" clip-rule="evenodd" d="M6.37308 0.998779C5.8201 0.998779 5.37183 1.44705 5.37183 2.00003C5.37183 2.42351 5.63473 2.78559 6.00623 2.93194L7.00137 6.1164H4.66727C4.11429 6.1164 3.66602 6.56467 3.66602 7.11764C3.66602 7.56577 3.9604 7.94513 4.36634 8.07288L5.4091 12.4525C5.05287 12.6059 4.80347 12.9601 4.80347 13.3725C4.80347 13.9255 5.25174 14.3738 5.80472 14.3738H6.63057C6.64785 14.3742 6.6652 14.3742 6.68261 14.3738H7.07794V20.3322H6.37308C5.8201 20.3322 5.37183 20.7804 5.37183 21.3334C5.37183 21.8864 5.8201 22.3347 6.37308 22.3347H8.07577L8.07919 22.3347L8.08262 22.3347H16.0361L16.0395 22.3347L16.0429 22.3347H17.177C17.73 22.3347 18.1782 21.8864 18.1782 21.3334C18.1782 20.7804 17.73 20.3322 17.177 20.3322H17.0408V14.3738H18.0302C18.5832 14.3738 19.0315 13.9255 19.0315 13.3725C19.0315 12.9364 18.7527 12.5655 18.3636 12.4281L19.3958 8.09269C19.8387 7.98928 20.1685 7.59198 20.1685 7.11765C20.1685 6.56467 19.7202 6.1164 19.1673 6.1164H18.6171C18.6043 6.11615 18.5915 6.11615 18.5788 6.1164H16.9831L17.8328 2.93012C18.2018 2.78259 18.4626 2.42176 18.4626 2.00003C18.4626 1.44705 18.0143 0.998779 17.4613 0.998779H6.37308ZM15.7413 3.00128H8.1259L9.09937 6.1164H14.9106L15.7413 3.00128ZM17.3311 8.1189L16.3186 12.3713L7.44824 12.3713L6.43577 8.1189H8.33866C8.35482 8.11929 8.37104 8.11929 8.38729 8.1189H17.3311ZM15.0383 14.3738L9.08044 14.3738V20.3322H15.0383V14.3738Z" fill="black"/>
</svg>
