<svg width="24" height="24" viewBox="0 0 24 24" fill="none" xmlns="http://www.w3.org/2000/svg">
<path fill-rule="evenodd" clip-rule="evenodd" d="M13.9473 8.47266C10.6336 8.47266 7.94727 11.1589 7.94727 14.4727C7.94727 17.7864 10.6336 20.4727 13.9473 20.4727C17.261 20.4727 19.9473 17.7864 19.9473 14.4727C19.9473 11.1589 17.261 8.47266 13.9473 8.47266ZM6.44727 14.4727C6.44727 10.3305 9.80513 6.97266 13.9473 6.97266C18.0894 6.97266 21.4473 10.3305 21.4473 14.4727C21.4473 18.6148 18.0894 21.9727 13.9473 21.9727C9.80513 21.9727 6.44727 18.6148 6.44727 14.4727Z" fill="black"/>
<path fill-rule="evenodd" clip-rule="evenodd" d="M6.44727 14.4727C6.44727 14.0584 6.78305 13.7227 7.19727 13.7227H20.6973C21.1115 13.7227 21.4473 14.0584 21.4473 14.4727C21.4473 14.8869 21.1115 15.2227 20.6973 15.2227H7.19727C6.78305 15.2227 6.44727 14.8869 6.44727 14.4727Z" fill="black"/>
<path fill-rule="evenodd" clip-rule="evenodd" d="M11.6974 14.4726C11.7414 16.4912 12.4026 18.4337 13.5723 20.03C14.742 18.4337 15.4031 16.4912 15.4471 14.4726C15.4031 12.4541 14.742 10.5116 13.5723 8.91523C12.4026 10.5116 11.7414 12.4541 11.6974 14.4726ZM13.5723 7.72262L13.0115 7.22461C11.25 9.20819 10.2517 11.7787 10.1974 14.4574C10.1972 14.4676 10.1972 14.4777 10.1974 14.4878C10.2517 17.1665 11.25 19.7371 13.0115 21.7206C13.1538 21.8809 13.3579 21.9726 13.5723 21.9726C13.7866 21.9726 13.9907 21.8809 14.1331 21.7206C15.8946 19.7371 16.8929 17.1665 16.9471 14.4878C16.9473 14.4777 16.9473 14.4676 16.9471 14.4574C16.8929 11.7787 15.8946 9.20819 14.1331 7.22461L13.5723 7.72262Z" fill="black"/>
<path fill-rule="evenodd" clip-rule="evenodd" d="M10.9644 2.93247C11.0287 3.481 10.6362 3.9778 10.0877 4.04212C9.50701 4.11021 8.93071 4.25976 8.3827 4.48226C7.87098 4.69002 7.28773 4.44361 7.07997 3.9319C6.87221 3.42018 7.11862 2.83693 7.63033 2.62917C8.34031 2.34092 9.09107 2.14528 9.85478 2.05573C10.4033 1.99141 10.9001 2.38394 10.9644 2.93247ZM12.0375 3.03203C12.2234 2.51197 12.7957 2.24108 13.3157 2.42698C14.0439 2.68725 14.7402 3.07099 15.3742 3.58935C15.8018 3.93892 15.865 4.56892 15.5154 4.99649C15.1659 5.42406 14.5359 5.4873 14.1083 5.13773C13.6573 4.76898 13.1628 4.49626 12.6425 4.31027C12.1225 4.12438 11.8516 3.55208 12.0375 3.03203ZM6.18188 4.52047C6.57811 4.9052 6.58743 5.5383 6.2027 5.93453C5.7987 6.35061 5.46533 6.81891 5.22071 7.32772C4.98142 7.82547 4.38392 8.03498 3.88617 7.79569C3.38842 7.55639 3.1789 6.95889 3.4182 6.46114C3.7628 5.74436 4.22472 5.10062 4.76782 4.54129C5.15256 4.14506 5.78565 4.13574 6.18188 4.52047ZM16.149 5.86963C16.6495 5.63606 17.2445 5.85243 17.4781 6.3529C17.6332 6.68527 17.7729 7.03642 17.8963 7.40649C18.0709 7.93044 17.7877 8.49675 17.2638 8.67139C16.7398 8.84602 16.1735 8.56285 15.9989 8.0389C15.8988 7.73865 15.7872 7.45893 15.6657 7.1987C15.4322 6.69824 15.6485 6.10319 16.149 5.86963ZM3.69149 8.86174C4.24213 8.81915 4.72304 9.231 4.76563 9.78164C4.80647 10.3097 4.93186 10.8736 5.16354 11.4689C5.36386 11.9835 5.10903 12.5631 4.59435 12.7635C4.07968 12.9638 3.50006 12.709 3.29974 12.1943C3.00104 11.4268 2.82844 10.6709 2.77158 9.93587C2.72899 9.38523 3.14085 8.90433 3.69149 8.86174ZM5.15694 13.6649C5.58874 13.3206 6.21792 13.3915 6.56226 13.8232C6.75165 14.0607 6.9581 14.3013 7.18257 14.5444C7.55717 14.9503 7.53186 15.5829 7.12604 15.9575C6.72021 16.3321 6.08755 16.3068 5.71295 15.901C5.45725 15.624 5.21929 15.347 4.99859 15.0702C4.65425 14.6384 4.72515 14.0092 5.15694 13.6649Z" fill="black"/>
</svg>
