<svg width="24" height="24" viewBox="0 0 24 24" fill="none" xmlns="http://www.w3.org/2000/svg">
<g clip-path="url(#clip0)">
<path d="M19.4306 5.64641L19.3695 5.35181C19.2457 4.74701 18.7096 4.30952 18.0952 4.30107L17.8497 4.30082C17.1149 4.31565 16.4276 4.64166 15.9642 5.20488L13.7817 7.83976L5.79381 8.32686C5.1232 8.36907 4.49684 8.69123 4.06068 9.22133L3.76082 9.58577C3.66541 9.70173 3.63902 9.89188 3.68561 10.046C3.74744 10.1992 3.86702 10.3173 4.02426 10.3546L10.5635 11.7336L9.24135 13.3405L6.56858 13.603C6.29425 13.6202 6.04643 13.7458 5.87085 13.9767L5.63914 14.2584C5.54373 14.3743 5.51572 14.5489 5.56232 14.703C5.62415 14.8562 5.74212 14.9587 5.88573 15.0125L9.43668 16.1241L11.1821 19.6584C11.2592 19.8107 11.4077 19.9113 11.5617 19.9173C11.7157 19.9233 11.848 19.8678 11.9418 19.7363L12.1872 19.4381C12.3507 19.2393 12.4317 18.9829 12.4299 18.6689L12.2362 15.9008L13.5752 14.3086L15.9708 20.7236C16.0327 20.8768 16.1675 20.9939 16.3247 21.0312C16.3721 21.0439 16.4026 21.042 16.4483 21.0391C16.5702 21.0314 16.6873 20.9769 16.7691 20.8775L17.0689 20.5131C17.5051 19.983 17.7102 19.2947 17.6377 18.5924L16.7935 10.4147L18.9045 7.83147C19.4104 7.23415 19.6026 6.42096 19.4306 5.64641Z" fill="black"/>
</g>
<defs>
<clipPath id="clip0">
<rect width="24" height="24" fill="white"/>
</clipPath>
</defs>
</svg>
