<svg width="24" height="24" viewBox="0 0 24 24" fill="none" xmlns="http://www.w3.org/2000/svg">
<path fill-rule="evenodd" clip-rule="evenodd" d="M2.20401 14.6477L2.20462 14.6491C2.57723 15.4958 3.5143 15.8783 4.3665 15.7111L4.60602 15.6613L4.61306 15.6597C5.46361 15.4654 6.21835 14.9492 6.66421 14.2043L6.66495 14.203L8.07559 11.8608L14.9941 10.0098C15.7801 9.79805 16.464 9.29363 16.8804 8.59726L17.0954 8.23752C17.3213 7.85964 17.2798 7.40663 17.0994 7.08737L17.0813 7.05534L17.0602 7.02523C16.8523 6.72921 16.5057 6.51728 16.0923 6.51483L16.0839 6.51478L11.2359 6.59579L11.3437 6.41553L13.4531 5.77471C13.87 5.659 14.2433 5.39294 14.4716 4.98493L14.6315 4.71754C14.8495 4.35283 14.8281 3.91392 14.6394 3.58004L14.6213 3.54801L14.6002 3.5179C14.3745 3.19649 14.0406 3.04733 13.7335 3.00943L13.7145 3.00707L10.596 2.78359L8.64042 0.42908L8.63525 0.422979C8.37097 0.111627 7.9546 -0.043298 7.54812 0.0268171C7.2227 0.0829504 6.89536 0.266719 6.70382 0.621042L6.53813 0.898182C6.3101 1.27961 6.26625 1.70332 6.34845 2.1148L6.35367 2.14091L6.89581 4.1139L6.71518 4.40882L4.14329 0.515863L4.13715 0.507131C3.909 0.182269 3.53703 0.00571466 3.16527 0.000526195C3.0124 -0.00301533 2.89924 0.0277073 2.84858 0.0414626L2.84202 0.0432394C2.5689 0.116829 2.29761 0.291955 2.12666 0.577896L1.9116 0.937631C1.49253 1.63859 1.3842 2.47039 1.62936 3.25024L3.61216 9.55741L2.27493 11.8113C1.78506 12.6091 1.71866 13.581 2.10399 14.4217L2.20401 14.6477ZM4.28555 14.1958L4.07423 14.2398C3.80484 14.2912 3.62516 14.1533 3.57744 14.0446L3.57658 14.0427L3.4712 13.8045L3.46877 13.7993C3.29539 13.4232 3.31802 12.9771 3.55503 12.5932L3.55849 12.5875L5.24403 9.74665L3.06032 2.80039C2.9535 2.4606 2.98826 2.09306 3.1683 1.7613L6.76309 7.20255L8.5144 4.34313L7.81553 1.79978C7.81441 1.79293 7.81348 1.78642 7.81271 1.78025L9.85083 4.23403L12.6936 4.43776L10.3535 5.14867L8.56475 8.14064L15.4519 8.02555C15.2401 8.27826 14.9438 8.46979 14.6039 8.56148L7.10302 10.5683L5.37874 13.4312L5.37749 13.4333C5.15948 13.798 4.7676 14.084 4.28555 14.1958Z" fill="black"/>
<path fill-rule="evenodd" clip-rule="evenodd" d="M22.5462 9.35243L22.5456 9.35103C22.173 8.50437 21.2359 8.12179 20.3837 8.28901L20.1442 8.33888L20.1371 8.34048C19.2866 8.53473 18.5319 9.05091 18.086 9.79586L18.0853 9.79711L16.6746 12.1393L9.75607 13.9903C8.97009 14.2021 8.28616 14.7065 7.86984 15.4029L7.65477 15.7626C7.42886 16.1405 7.47043 16.5935 7.65079 16.9128L7.66889 16.9448L7.69003 16.9749C7.89793 17.2709 8.2445 17.4829 8.65785 17.4853L8.66634 17.4854L13.5143 17.4043L13.4065 17.5846L11.2971 18.2254C10.8802 18.3411 10.5069 18.6072 10.2786 19.0152L10.1187 19.2826C9.90068 19.6473 9.92214 20.0862 10.1108 20.4201L10.1289 20.4521L10.15 20.4822C10.3757 20.8036 10.7096 20.9528 11.0167 20.9907L11.0357 20.9931L14.1542 21.2165L16.1098 23.5711L16.115 23.5772C16.3792 23.8885 16.7956 24.0434 17.2021 23.9733C17.5275 23.9172 17.8548 23.7334 18.0464 23.3791L18.2121 23.102C18.4401 22.7205 18.484 22.2968 18.4017 21.8853L18.3965 21.8592L17.8544 19.8862L18.035 19.5913L20.6069 23.4843L20.613 23.493C20.8412 23.8179 21.2132 23.9944 21.5849 23.9996C21.7378 24.0032 21.851 23.9724 21.9016 23.9587L21.9082 23.9569C22.1813 23.8833 22.4526 23.7082 22.6235 23.4222L22.8386 23.0625C23.2577 22.3615 23.366 21.5297 23.1208 20.7499L21.138 14.4427L22.4753 12.1889C22.9651 11.391 23.0315 10.4192 22.6462 9.57847L22.5462 9.35243ZM20.4647 9.80432L20.676 9.76032C20.9454 9.70893 21.125 9.84682 21.1728 9.9555L21.1736 9.95744L21.279 10.1956L21.2814 10.2009C21.4548 10.5769 21.4322 11.0231 21.1952 11.407L21.1917 11.4126L19.5062 14.2535L21.6899 21.1997C21.7967 21.5395 21.7619 21.9071 21.5819 22.2388L17.9871 16.7976L16.2358 19.657L16.9347 22.2004C16.9354 22.2046 16.936 22.2087 16.9365 22.2127C16.9369 22.2152 16.9372 22.2175 16.9375 22.2199L14.8994 19.7661L12.0566 19.5624L14.3967 18.8515L16.1855 15.8595L9.2983 15.9746C9.51009 15.7219 9.80636 15.5303 10.1463 15.4387L17.6472 13.4319L19.3715 10.5689L19.3727 10.5668C19.5907 10.2021 19.9826 9.91615 20.4647 9.80432Z" fill="black"/>
</svg>
