<svg width="24" height="24" viewBox="0 0 24 24" fill="none" xmlns="http://www.w3.org/2000/svg">
<g clip-path="url(#clip0)">
<path fill-rule="evenodd" clip-rule="evenodd" d="M18.0749 8.82114L18.075 8.82207L18.0763 9.02911C18.0921 9.84762 17.695 10.6121 17.0179 11.0857L15.272 12.3458L14.691 17.8298C14.6148 18.5491 14.2334 19.1851 13.6478 19.6048L13.3609 19.8104C13.1048 19.9939 12.8046 20.0427 12.5426 20.0039C12.5408 20.0037 12.5387 20.0034 12.5366 20.0031C12.4907 19.9964 12.3792 19.9801 12.2466 19.9189C11.9294 19.7754 11.6747 19.4845 11.5995 19.1174L11.5974 19.107L10.9502 15.4187L10.9062 15.4495L10.669 17.1086L10.6634 17.1346C10.5836 17.5038 10.3935 17.8439 10.0616 18.0817L9.84268 18.2386C9.5432 18.4725 9.19075 18.5072 8.89201 18.4343C8.51331 18.3419 8.21172 18.0513 8.1002 17.6826L8.09788 17.6749L7.39234 15.2484L5.10118 14.0507L5.08462 14.041C4.83726 13.8951 4.60461 13.642 4.53023 13.2791L4.52284 13.243L4.51902 13.2064C4.48141 12.8465 4.62764 12.4573 4.95591 12.2221L5.16778 12.0702C5.50767 11.8122 5.91649 11.726 6.30486 11.7801L7.85098 11.959L4.4601 10.5516L4.45234 10.5482C4.09582 10.3906 3.87631 10.077 3.80816 9.74446L3.80077 9.70842L3.79695 9.67183C3.76108 9.32861 3.89427 8.92059 4.23501 8.67639L4.52189 8.47079C5.10312 8.05424 5.83184 7.88768 6.5392 7.99238L12.4566 8.87895L14.2932 7.57176L14.2944 7.57091C14.9172 7.12511 15.7066 6.97467 16.4578 7.11571L16.4648 7.11704L16.669 7.15947C17.4291 7.32655 18.0714 7.97833 18.0749 8.82114ZM16.3501 8.62523L16.1745 8.58876C15.7942 8.51904 15.4293 8.60302 15.167 8.79099L15.165 8.79241L12.8331 10.4521L6.31958 9.47621C6.1524 9.45154 5.98534 9.45931 5.82906 9.49572L11.1014 11.6841L8.50522 13.5448L7.04867 13.3762L8.65408 14.2154L9.26635 16.321L9.51321 14.5939L12.0203 12.8375L12.9635 18.2133C13.0979 18.0578 13.1783 17.871 13.1994 17.6718L13.851 11.5216L16.1503 9.86205L16.1557 9.85829C16.4359 9.66346 16.5833 9.36357 16.5765 9.05562L16.5764 9.04983L16.575 8.82961L16.575 8.82748C16.5749 8.80671 16.567 8.77044 16.5291 8.72723C16.491 8.68396 16.4299 8.64346 16.3501 8.62523Z" fill="black"/>
<path fill-rule="evenodd" clip-rule="evenodd" d="M12.9826 -1.1901C13.2262 -0.85511 13.1521 -0.386047 12.8172 -0.142418L0.442158 8.85758C0.107169 9.10121 -0.361894 9.02715 -0.605523 8.69216C-0.849151 8.35717 -0.775089 7.88811 -0.440099 7.64448L11.9349 -1.35552C12.2699 -1.59915 12.739 -1.52509 12.9826 -1.1901Z" fill="black"/>
<path fill-rule="evenodd" clip-rule="evenodd" d="M22.7354 4.06413C22.9761 4.40119 22.898 4.8696 22.561 5.11036L19.936 6.98536C19.5989 7.22612 19.1305 7.14805 18.8898 6.81099C18.649 6.47393 18.7271 6.00552 19.0641 5.76476L21.6891 3.88976C22.0262 3.649 22.4946 3.72707 22.7354 4.06413Z" fill="black"/>
<path fill-rule="evenodd" clip-rule="evenodd" d="M5.48536 16.8141C5.72612 17.1512 5.64805 17.6196 5.31099 17.8604L2.68599 19.7354C2.34893 19.9761 1.88051 19.898 1.63976 19.561C1.399 19.2239 1.47707 18.7555 1.81413 18.5148L4.43913 16.6398C4.77619 16.399 5.2446 16.4771 5.48536 16.8141Z" fill="black"/>
<path fill-rule="evenodd" clip-rule="evenodd" d="M26.4454 12.2631C26.7144 12.5781 26.677 13.0515 26.362 13.3204L10.987 26.4454C10.6719 26.7144 10.1985 26.677 9.92959 26.362C9.66066 26.0469 9.69803 25.5735 10.0131 25.3046L25.3881 12.1796C25.7031 11.9107 26.1765 11.948 26.4454 12.2631Z" fill="black"/>
</g>
<defs>
<clipPath id="clip0">
<rect width="24" height="24" fill="white"/>
</clipPath>
</defs>
</svg>
