<svg width="24" height="24" viewBox="0 0 24 24" fill="none" xmlns="http://www.w3.org/2000/svg">
<path fill-rule="evenodd" clip-rule="evenodd" d="M8.95508 2.00003C8.95508 1.44705 9.40335 0.998779 9.95633 0.998779L21.0446 0.998779C21.5975 0.998779 22.0458 1.44705 22.0458 2.00003C22.0458 2.553 21.5975 3.00128 21.0446 3.00128L9.95633 3.00128C9.40335 3.00128 8.95508 2.553 8.95508 2.00003Z" fill="black"/>
<path fill-rule="evenodd" clip-rule="evenodd" d="M2.74902 21.75C2.74902 21.1971 3.1973 20.7488 3.75027 20.7488L21.0003 20.7488C21.5532 20.7488 22.0015 21.1971 22.0015 21.75C22.0015 22.303 21.5532 22.7513 21.0003 22.7513L3.75027 22.7513C3.1973 22.7513 2.74902 22.303 2.74902 21.75Z" fill="black"/>
<path fill-rule="evenodd" clip-rule="evenodd" d="M22.7503 8.11896L8.25027 8.11896C7.6973 8.11896 7.24902 7.67068 7.24902 7.11771C7.24902 6.56473 7.6973 6.11646 8.25027 6.11646L22.7503 6.11646C23.3032 6.11646 23.7515 6.56473 23.7515 7.11771C23.7515 7.67068 23.3032 8.11896 22.7503 8.11896Z" fill="black"/>
<path fill-rule="evenodd" clip-rule="evenodd" d="M8.38672 13.3726C8.38672 12.8196 8.83499 12.3713 9.38797 12.3713L21.6135 12.3713C22.1664 12.3713 22.6147 12.8196 22.6147 13.3726C22.6147 13.9256 22.1664 14.3738 21.6135 14.3738L9.38797 14.3738C8.83499 14.3738 8.38672 13.9256 8.38672 13.3726Z" fill="black"/>
<path fill-rule="evenodd" clip-rule="evenodd" d="M11.6618 12.9399C12.2148 12.9399 12.6631 13.3882 12.6631 13.9412V21.3333C12.6631 21.8863 12.2148 22.3346 11.6618 22.3346C11.1089 22.3346 10.6606 21.8863 10.6606 21.3333V13.9412C10.6606 13.3882 11.1089 12.9399 11.6618 12.9399Z" fill="black"/>
<path fill-rule="evenodd" clip-rule="evenodd" d="M19.6228 12.9399C20.1757 12.9399 20.624 13.3882 20.624 13.9412V21.3333C20.624 21.8863 20.1757 22.3346 19.6228 22.3346C19.0698 22.3346 18.6215 21.8863 18.6215 21.3333V13.9412C18.6215 13.3882 19.0698 12.9399 19.6228 12.9399Z" fill="black"/>
<path fill-rule="evenodd" clip-rule="evenodd" d="M10.2263 1.61298C10.7541 1.44804 11.3157 1.7422 11.4806 2.27001L12.9022 6.81903C13.0671 7.34683 12.773 7.90841 12.2452 8.07335C11.7174 8.23829 11.1558 7.94413 10.9909 7.41632L9.56928 2.8673C9.40434 2.3395 9.6985 1.77792 10.2263 1.61298Z" fill="black"/>
<path fill-rule="evenodd" clip-rule="evenodd" d="M8.58695 6.42809C9.12489 6.30001 9.6648 6.63226 9.79288 7.1702L11.2145 13.1408C11.3425 13.6787 11.0103 14.2186 10.4723 14.3467C9.9344 14.4748 9.39449 14.1425 9.26641 13.6046L7.84484 7.63402C7.71676 7.09609 8.04901 6.55617 8.58695 6.42809Z" fill="black"/>
<path fill-rule="evenodd" clip-rule="evenodd" d="M22.414 6.14367C21.8761 6.01559 21.3362 6.34784 21.2081 6.88578L19.7865 12.8564C19.6584 13.3943 19.9907 13.9342 20.5286 14.0623C21.0666 14.1904 21.6065 13.8581 21.7346 13.3202L23.1561 7.3496C23.2842 6.81166 22.952 6.27175 22.414 6.14367Z" fill="black"/>
<path fill-rule="evenodd" clip-rule="evenodd" d="M20.734 1.60119C20.1997 1.45871 19.6511 1.77635 19.5086 2.31065L18.3713 6.57536C18.2289 7.10966 18.5465 7.6583 19.0808 7.80078C19.6151 7.94327 20.1637 7.62563 20.3062 7.09133L21.4435 2.82662C21.586 2.29232 21.2683 1.74367 20.734 1.60119Z" fill="black"/>
<path fill-rule="evenodd" clip-rule="evenodd" d="M2.74902 5.25003C2.74902 4.69705 3.1973 4.24878 3.75027 4.24878H7.50027C8.05325 4.24878 8.50152 4.69705 8.50152 5.25003C8.50152 5.803 8.05325 6.25128 7.50027 6.25128H3.75027C3.1973 6.25128 2.74902 5.803 2.74902 5.25003Z" fill="black"/>
<path fill-rule="evenodd" clip-rule="evenodd" d="M1.24902 9.48514C1.24902 8.93216 1.6973 8.48389 2.25027 8.48389L6.00027 8.48389C6.55325 8.48389 7.00152 8.93216 7.00152 9.48514C7.00152 10.0381 6.55325 10.4864 6.00027 10.4864L2.25027 10.4864C1.6973 10.4864 1.24902 10.0381 1.24902 9.48514Z" fill="black"/>
<path fill-rule="evenodd" clip-rule="evenodd" d="M7.12516 15.6631L3.19168 15.6632C2.63871 15.6632 2.19043 15.2149 2.19043 14.6619C2.19043 14.1089 2.6387 13.6607 3.19168 13.6607L7.12515 13.6606C7.67812 13.6606 8.1264 14.1089 8.1264 14.6619C8.1264 15.2149 7.67813 15.6631 7.12516 15.6631Z" fill="black"/>
<path fill-rule="evenodd" clip-rule="evenodd" d="M5.07395 14.1311C5.62692 14.1311 6.0752 14.5794 6.0752 15.1324V21.25C6.0752 21.803 5.62692 22.2513 5.07395 22.2513C4.52097 22.2513 4.0727 21.803 4.0727 21.25V15.1324C4.0727 14.5794 4.52097 14.1311 5.07395 14.1311Z" fill="black"/>
<path fill-rule="evenodd" clip-rule="evenodd" d="M3.83373 4.76484C4.36153 4.5999 4.92311 4.89406 5.08805 5.42186L6.26452 9.18657C6.42946 9.71437 6.1353 10.276 5.6075 10.4409C5.07969 10.6058 4.51811 10.3117 4.35317 9.78386L3.1767 6.01916C3.01177 5.49136 3.30593 4.92978 3.83373 4.76484Z" fill="black"/>
<path fill-rule="evenodd" clip-rule="evenodd" d="M2.48929 8.74645C3.02723 8.61837 3.56715 8.95062 3.69523 9.48856L4.8717 14.4297C4.99978 14.9677 4.66752 15.5076 4.12958 15.6357C3.59165 15.7638 3.05173 15.4315 2.92365 14.8936L1.74718 9.95238C1.6191 9.41444 1.95136 8.87453 2.48929 8.74645Z" fill="black"/>
</svg>
