<svg width="24" height="24" viewBox="0 0 24 24" fill="none" xmlns="http://www.w3.org/2000/svg">
<path fill-rule="evenodd" clip-rule="evenodd" d="M4.8 0C2.14922 0 0 2.14907 0 4.8V19.2C0 21.8509 2.14922 24 4.8 24H19.2C21.8508 24 24 21.8509 24 19.2V4.8C24 2.14907 21.8508 0 19.2 0H4.8ZM17.0959 7.4814L17.1451 7.71709C17.2823 8.33672 17.1287 8.98726 16.7238 9.46524L15.0352 11.5318L15.7108 18.0739C15.7687 18.6358 15.6047 19.1863 15.2555 19.6104L15.0158 19.9021C14.9502 19.9814 14.8565 20.0251 14.7592 20.0312L14.7152 20.0329C14.6982 20.0326 14.6813 20.0305 14.6602 20.025C14.5342 19.9951 14.4264 19.9014 14.3772 19.7789L12.4606 14.6468L11.3895 15.9206L11.5441 18.135C11.5459 18.3863 11.4809 18.5915 11.3502 18.7505L11.1539 18.989C11.0789 19.0943 10.9728 19.1387 10.8498 19.1338C10.7268 19.129 10.6078 19.0486 10.5463 18.9268L9.14941 16.0993L6.30878 15.21C6.19394 15.167 6.09961 15.085 6.05039 14.9623C6.01992 14.8627 6.02872 14.7524 6.07382 14.6647C6.08437 14.6438 6.09726 14.6244 6.11191 14.6066L6.29707 14.3814C6.375 14.2788 6.4711 14.2022 6.57832 14.1522C6.66445 14.1119 6.75762 14.0886 6.85547 14.0825L8.99356 13.8724L10.0512 12.5869L4.81992 11.4836C4.69394 11.4539 4.59844 11.3594 4.54864 11.2368C4.51172 11.1135 4.53281 10.9614 4.60898 10.8686L4.84864 10.5771C5.19785 10.153 5.69882 9.89531 6.23555 9.86148L12.6258 9.47183L14.3719 7.36392C14.7422 6.91333 15.2924 6.65258 15.8801 6.64073L16.0764 6.64087C16.5679 6.6476 16.9969 6.99756 17.0959 7.4814Z" fill="black"/>
</svg>
