<svg width="24" height="24" viewBox="0 0 24 24" fill="none" xmlns="http://www.w3.org/2000/svg">
<g clip-path="url(#clip0)">
<path fill-rule="evenodd" clip-rule="evenodd" d="M0 12C0 11.4477 0.447715 11 1 11L23 11C23.5523 11 24 11.4477 24 12C24 12.5523 23.5523 13 23 13L1 13C0.447715 13 0 12.5523 0 12Z" fill="black"/>
<path fill-rule="evenodd" clip-rule="evenodd" d="M18.2929 7.29289C18.6834 6.90237 19.3166 6.90237 19.7071 7.29289L23.7071 11.2929C24.0976 11.6834 24.0976 12.3166 23.7071 12.7071L19.7071 16.7071C19.3166 17.0976 18.6834 17.0976 18.2929 16.7071C17.9024 16.3166 17.9024 15.6834 18.2929 15.2929L21.5858 12L18.2929 8.70711C17.9024 8.31658 17.9024 7.68342 18.2929 7.29289Z" fill="black"/>
</g>
<defs>
<clipPath id="clip0">
<rect width="24" height="24" fill="white"/>
</clipPath>
</defs>
</svg>
