<svg width="24" height="24" viewBox="0 0 24 24" fill="none" xmlns="http://www.w3.org/2000/svg">
<path fill-rule="evenodd" clip-rule="evenodd" d="M10.5021 1.40289C10.9577 1.14038 11.4742 1.0022 12 1.0022C12.5258 1.0022 13.0423 1.14038 13.4979 1.40289L13.5 1.40412L20.5 5.40411C20.8699 5.61766 21.1889 5.90712 21.4367 6.2522C21.4972 6.31262 21.5508 6.38185 21.5956 6.45936C21.6342 6.52612 21.6643 6.59548 21.6861 6.66618C21.8917 7.07959 21.9995 7.53571 22 7.99912V16.0012C21.9995 16.5273 21.8606 17.044 21.5973 17.4994C21.334 17.9549 20.9556 18.3331 20.5 18.5962L20.4961 18.5984L13.5 22.5962L13.498 22.5974C13.1807 22.7802 12.8339 22.9027 12.475 22.9603C12.3337 23.0367 12.1719 23.0801 12 23.0801C11.828 23.0801 11.6662 23.0367 11.5249 22.9602C11.166 22.9027 10.8192 22.7801 10.502 22.5974L10.5 22.5962L3.50386 18.5984L3.5 18.5962C3.04439 18.3331 2.66597 17.9549 2.40269 17.4994C2.13941 17.044 2.00054 16.5273 2 16.0012V7.99912C2.00048 7.53563 2.10833 7.07942 2.31403 6.66595C2.33582 6.59533 2.36584 6.52605 2.40441 6.45936C2.44921 6.38192 2.5028 6.31274 2.56319 6.25235C2.81103 5.90721 3.13007 5.6177 3.5 5.40412L3.50386 5.40189L10.5 1.40412L10.5021 1.40289ZM13 20.5784L19.5 16.8641L19.5016 16.8632C19.6528 16.7755 19.7783 16.6498 19.8658 16.4985C19.9535 16.3467 19.9998 16.1745 20 15.9991V8.53763L13 12.5869V20.5784ZM11 12.5868V20.5784L4.5 16.8641L4.49842 16.8632C4.34726 16.7756 4.22169 16.6498 4.13423 16.4985C4.04654 16.3468 4.00025 16.1748 4 15.9996V8.53761L11 12.5868ZM12.5 3.13618L18.961 6.82816L12 10.8548L5.03905 6.82814L11.4961 3.1384L11.5 3.13617C11.652 3.0484 11.8245 3.0022 12 3.0022C12.1755 3.0022 12.348 3.04841 12.5 3.13618Z" fill="black"/>
</svg>
