<svg width="24" height="24" viewBox="0 0 24 24" fill="none" xmlns="http://www.w3.org/2000/svg">
<path fill-rule="evenodd" clip-rule="evenodd" d="M12 20C16.4183 20 20 16.4183 20 12C20 10.7738 19.7254 9.61603 19.2352 8.58094C19.2172 8.58631 19.1986 8.59186 19.1794 8.5976C18.1304 8.91197 16.3376 9.39058 14.1482 8.28544C11.9708 7.18642 11.4289 5.28628 11.1739 4.19531C11.161 4.14022 11.1496 4.09081 11.1394 4.04575C7.12582 4.47503 4 7.87248 4 12C4 16.4183 7.58172 20 12 20ZM12 22C17.5228 22 22 17.5228 22 12C22 10.1786 21.513 8.47087 20.6622 7C20.1993 6.19975 19.579 6.38739 18.7358 6.64244C17.8068 6.92345 16.6072 7.28631 15.0494 6.5C13.5715 5.75405 13.2845 4.47244 13.0594 3.46728C12.8741 2.64001 12.7307 2 12 2C6.47715 2 2 6.47715 2 12C2 17.5228 6.47715 22 12 22Z" fill="black"/>
<path d="M15 12C15 12.5523 14.5523 13 14 13C13.4477 13 13 12.5523 13 12C13 11.4477 13.4477 11 14 11C14.5523 11 15 11.4477 15 12Z" fill="black"/>
<path fill-rule="evenodd" clip-rule="evenodd" d="M8.5 9C8.22386 9 8 9.22386 8 9.5C8 9.77614 8.22386 10 8.5 10C8.77614 10 9 9.77614 9 9.5C9 9.22386 8.77614 9 8.5 9ZM6 9.5C6 8.11929 7.11929 7 8.5 7C9.88071 7 11 8.11929 11 9.5C11 10.8807 9.88071 12 8.5 12C7.11929 12 6 10.8807 6 9.5Z" fill="black"/>
<path d="M11 16C11 16.5523 10.5523 17 10 17C9.44772 17 9 16.5523 9 16C9 15.4477 9.44772 15 10 15C10.5523 15 11 15.4477 11 16Z" fill="black"/>
<path d="M17 15C17 15.5523 16.5523 16 16 16C15.4477 16 15 15.5523 15 15C15 14.4477 15.4477 14 16 14C16.5523 14 17 14.4477 17 15Z" fill="black"/>
</svg>
