<svg width="24" height="24" viewBox="0 0 24 24" fill="none" xmlns="http://www.w3.org/2000/svg">
<path fill-rule="evenodd" clip-rule="evenodd" d="M22 5.06388C22.0007 5.04271 22.001 5.02142 22.001 5C22.001 4.14805 21.4821 3.49559 20.9127 3.04685C20.332 2.58923 19.5537 2.22085 18.6812 1.93C16.9256 1.3448 14.5638 1 12.001 1C9.43812 1 7.07639 1.3448 5.32079 1.93C4.44821 2.22085 3.66994 2.58923 3.08927 3.04685C2.5338 3.48461 2.0264 4.11625 2.0019 4.93782C2.00064 4.95838 2 4.97912 2 5V19C2 19.8494 2.51319 20.502 3.08206 20.9528C3.66091 21.4115 4.43712 21.7802 5.30833 22.071C7.06109 22.6562 9.42324 23 12 23C14.5768 23 16.9389 22.6562 18.6917 22.071C19.5629 21.7802 20.3391 21.4115 20.9179 20.9528C21.4868 20.502 22 19.8494 22 19V5.06388ZM4.00098 5C4.00098 5 4.00096 5.00521 4.00403 5.01529C4.00743 5.02644 4.0158 5.04845 4.03605 5.08143C4.0785 5.15057 4.16506 5.25453 4.32722 5.38232C4.65739 5.64253 5.19714 5.9206 5.95324 6.17264C7.455 6.67322 9.59327 7 12.001 7C14.4087 7 16.547 6.67322 18.0487 6.17264C18.8048 5.9206 19.3446 5.64253 19.6747 5.38232C19.8369 5.25453 19.9235 5.15057 19.9659 5.08143C19.9862 5.04845 19.9945 5.02644 19.9979 5.01529C19.9989 5.01212 19.9996 5.00952 20 5.00743V5C20 4.99756 20 4.99513 20 4.9927C19.9996 4.99058 19.9989 4.98794 19.9979 4.98471C19.9945 4.97356 19.9862 4.95155 19.9659 4.91857C19.9235 4.84943 19.8369 4.74547 19.6747 4.61768C19.3446 4.35747 18.8048 4.0794 18.0487 3.82736C16.547 3.32678 14.4087 3 12.001 3C9.59327 3 7.455 3.32678 5.95324 3.82736C5.19714 4.0794 4.65739 4.35747 4.32722 4.61768C4.16506 4.74547 4.0785 4.84943 4.03605 4.91857C4.0158 4.95155 4.00743 4.97356 4.00403 4.98471C4.00096 4.99479 4.00098 5 4.00098 5ZM20 7.5271C19.599 7.73207 19.1539 7.91241 18.6812 8.07C16.9256 8.6552 14.5638 9 12.001 9C9.43812 9 7.07639 8.6552 5.32079 8.07C4.84725 7.91216 4.40148 7.73148 4 7.5261V12.0002C4 12.0002 4.00008 12.0073 4.0034 12.0183C4.00695 12.03 4.01544 12.0523 4.03558 12.0854C4.07772 12.1545 4.16348 12.2582 4.32419 12.3855C4.65159 12.645 5.18788 12.9226 5.94167 13.1742C7.43891 13.6741 9.57677 14.0002 12 14.0002C14.4232 14.0002 16.5611 13.6741 18.0583 13.1742C18.8121 12.9226 19.3484 12.645 19.6758 12.3855C19.8365 12.2582 19.9223 12.1545 19.9644 12.0854C19.9846 12.0523 19.9931 12.03 19.9966 12.0183C19.9999 12.0073 20 12.0002 20 12.0002V7.5271ZM20 14.5321C19.6021 14.7356 19.1606 14.9147 18.6917 15.0713C16.9389 15.6564 14.5768 16.0002 12 16.0002C9.42324 16.0002 7.06109 15.6564 5.30833 15.0713C4.83938 14.9147 4.39794 14.7356 4 14.5321V19C4 19 4.00008 19.007 4.0034 19.018C4.00695 19.0298 4.01544 19.0521 4.03558 19.0851C4.07772 19.1543 4.16348 19.258 4.32419 19.3853C4.65159 19.6447 5.18788 19.9223 5.94167 20.174C7.43891 20.6738 9.57677 21 12 21C14.4232 21 16.5611 20.6738 18.0583 20.174C18.8121 19.9223 19.3484 19.6447 19.6758 19.3853C19.8365 19.258 19.9223 19.1543 19.9644 19.0851C19.9846 19.0521 19.9931 19.0298 19.9966 19.018C19.9999 19.007 20 19 20 19V14.5321Z" fill="black"/>
</svg>
