<svg width="24" height="24" viewBox="0 0 24 24" fill="none" xmlns="http://www.w3.org/2000/svg">
<path fill-rule="evenodd" clip-rule="evenodd" d="M16.4374 2C17.0921 2 17.7197 2.26142 18.1781 2.72342L21.279 5.82432C21.7407 6.286 22.0001 6.91217 22.0001 7.56508C22.0001 8.21799 21.7407 8.84416 21.279 9.30584L9.95751 20.6238C9.25902 21.4295 8.2689 21.9245 7.1346 22.0023H2V21.0023L2.00325 16.7873C2.08844 15.7328 2.57867 14.7523 3.3265 14.0934L14.6954 2.72463C15.1564 2.26083 15.7834 2 16.4374 2ZM7.06406 20.0048C7.59829 19.967 8.09557 19.7183 8.49487 19.2616L16.0567 11.6998L12.3023 7.94528L4.69618 15.5495C4.29103 15.9079 4.04039 16.4092 4.00008 16.8678V20.0029L7.06406 20.0048ZM13.7167 6.53123L17.4709 10.2856L19.8649 7.89158C19.9515 7.80498 20.0001 7.68752 20.0001 7.56504C20.0001 7.44256 19.9515 7.3251 19.8649 7.2385L16.7612 4.13482C16.6756 4.04851 16.559 3.99996 16.4374 3.99996C16.3158 3.99996 16.1993 4.04851 16.1137 4.13482L13.7167 6.53123Z" fill="black"/>
</svg>
