<svg width="24" height="24" viewBox="0 0 24 24" fill="none" xmlns="http://www.w3.org/2000/svg">
<path fill-rule="evenodd" clip-rule="evenodd" d="M3.87868 1.87868C4.44129 1.31607 5.20435 1 6 1H14C14.2652 1 14.5196 1.10536 14.7071 1.29289L20.7071 7.29289C20.8946 7.48043 21 7.73478 21 8V20C21 20.7957 20.6839 21.5587 20.1213 22.1213C19.5587 22.6839 18.7957 23 18 23H6C5.20435 23 4.44129 22.6839 3.87868 22.1213C3.31607 21.5587 3 20.7957 3 20V4C3 3.20435 3.31607 2.44129 3.87868 1.87868ZM6 3C5.73478 3 5.48043 3.10536 5.29289 3.29289C5.10536 3.48043 5 3.73478 5 4V20C5 20.2652 5.10536 20.5196 5.29289 20.7071C5.48043 20.8946 5.73478 21 6 21H18C18.2652 21 18.5196 20.8946 18.7071 20.7071C18.8946 20.5196 19 20.2652 19 20V8.41421L13.5858 3H6Z" fill="black"/>
<path fill-rule="evenodd" clip-rule="evenodd" d="M15.223 9.01351C15.6403 9.37531 15.6852 10.0069 15.3234 10.4242L10.3234 16.1908C9.96163 16.6081 9.33007 16.6531 8.91279 16.2913C8.49551 15.9295 8.45054 15.2979 8.81234 14.8806L13.8123 9.11396C14.1741 8.69669 14.8057 8.65171 15.223 9.01351Z" fill="black"/>
<path fill-rule="evenodd" clip-rule="evenodd" d="M8.91276 9.01351C8.49548 9.37531 8.45051 10.0069 8.81231 10.4242L13.8123 16.1908C14.1741 16.6081 14.8057 16.6531 15.223 16.2913C15.6402 15.9295 15.6852 15.2979 15.3234 14.8806L10.3234 9.11396C9.9616 8.69669 9.33003 8.65171 8.91276 9.01351Z" fill="black"/>
</svg>
