<svg width="24" height="24" viewBox="0 0 24 24" fill="none" xmlns="http://www.w3.org/2000/svg">
<path fill-rule="evenodd" clip-rule="evenodd" d="M3.87868 1.87868C4.44129 1.31607 5.20435 1 6 1H14C14.0089 1 14.0177 1.00012 14.0265 1.00035C14.2959 1.00735 14.5388 1.12086 14.7145 1.30032L20.6997 7.28553C20.8851 7.46705 21.0001 7.7201 21.0001 8.00001L21 8.0131V20C21 20.7957 20.6839 21.5587 20.1213 22.1213C19.5587 22.6839 18.7957 23 18 23H6C5.20435 23 4.44129 22.6839 3.87868 22.1213C3.31607 21.5587 3 20.7957 3 20V4C3 3.20435 3.31607 2.44129 3.87868 1.87868ZM6 3H13.0001V8.00001C13.0001 8.55229 13.4478 9.00001 14.0001 9.00001H19V20C19 20.2652 18.8946 20.5196 18.7071 20.7071C18.5196 20.8946 18.2652 21 18 21H6C5.73478 21 5.48043 20.8946 5.29289 20.7071C5.10536 20.5196 5 20.2652 5 20V4C5 3.73478 5.10536 3.48043 5.29289 3.29289C5.48043 3.10536 5.73478 3 6 3ZM15.0001 4.4143L17.5858 7.00001H15.0001V4.4143ZM8.00009 12.0001C7.4478 12.0001 7.00009 12.4478 7.00009 13.0001C7.00009 13.5524 7.4478 14.0001 8.00009 14.0001H16.0001C16.5524 14.0001 17.0001 13.5524 17.0001 13.0001C17.0001 12.4478 16.5524 12.0001 16.0001 12.0001H8.00009ZM7.00009 17C7.00009 16.4477 7.4478 16 8.00009 16H16.0001C16.5524 16 17.0001 16.4477 17.0001 17C17.0001 17.5523 16.5524 18 16.0001 18H8.00009C7.4478 18 7.00009 17.5523 7.00009 17ZM8.00009 8.00013C7.4478 8.00013 7.00009 8.44785 7.00009 9.00013C7.00009 9.55242 7.4478 10.0001 8.00009 10.0001H10.0001C10.5524 10.0001 11.0001 9.55242 11.0001 9.00013C11.0001 8.44785 10.5524 8.00013 10.0001 8.00013H8.00009Z" fill="black"/>
</svg>
