<svg width="24" height="24" viewBox="0 0 24 24" fill="none" xmlns="http://www.w3.org/2000/svg">
<path fill-rule="evenodd" clip-rule="evenodd" d="M20.8441 3.66496L20.8449 3.66676L20.9735 3.95739C21.4689 5.03835 21.3835 6.28788 20.7537 7.31378L19.0344 10.2117L21.5837 18.3213C21.8989 19.324 21.7596 20.3935 21.2208 21.2947L20.9443 21.7573C20.7245 22.1249 20.3757 22.3501 20.0246 22.4447C20.0219 22.4454 20.0191 22.4462 20.0162 22.447C19.951 22.4647 19.8055 22.5042 19.6089 22.4996C19.131 22.493 18.6527 22.266 18.3594 21.8483L18.3515 21.837L15.0448 16.8316L14.8126 17.2108L15.5096 19.7476L15.5163 19.7812C15.622 20.3102 15.5656 20.855 15.2724 21.3455L15.0594 21.7018C14.8132 22.1574 14.3923 22.3937 13.9739 22.4658C13.4513 22.556 12.916 22.3568 12.5762 21.9565L12.5695 21.9486L10.0552 18.9213L6.04579 18.6339L6.02126 18.6309C5.62645 18.5822 5.19723 18.3904 4.907 17.9771L4.87982 17.9384L4.85655 17.8972C4.61403 17.4679 4.58644 16.9036 4.86678 16.4346L5.0723 16.0909C5.36583 15.5662 5.84576 15.2241 6.38178 15.0754L9.09388 14.2514L9.23243 14.0197L2.99945 14.1238L2.98853 14.1238C2.45708 14.1206 2.0115 13.8481 1.74419 13.4675L1.71701 13.4288L1.69374 13.3876C1.46185 12.9771 1.4084 12.3946 1.69886 11.9088L1.97537 11.4462C2.51064 10.5509 3.38998 9.90229 4.40052 9.63L13.2957 7.25003L15.1094 4.23851L15.1103 4.23691C15.6836 3.27907 16.654 2.61538 17.7475 2.36563L17.7566 2.36356L18.0645 2.29944C19.1602 2.08444 20.365 2.57634 20.8441 3.66496ZM18.4403 4.19121L18.1686 4.24778C17.5488 4.39157 17.045 4.75929 16.7647 5.22816L16.7631 5.23086L14.5462 8.91195L4.90226 11.4922C4.46518 11.6101 4.08425 11.8564 3.81195 12.1813L12.6668 12.0333L10.367 15.8803L7.35832 16.7944L11.0133 17.0563L13.6337 20.2113C13.6327 20.2034 13.6315 20.195 13.6301 20.1862L12.7315 16.9161L14.9832 13.2395L19.6051 20.2357C19.8365 19.8091 19.8812 19.3366 19.7439 18.8997L16.9363 9.96837L19.1034 6.31564L19.1078 6.30843C19.4126 5.8148 19.4417 5.24116 19.2187 4.75764L19.2156 4.75088L19.0801 4.44466L19.079 4.44216C19.0177 4.30243 18.7866 4.12513 18.4403 4.19121Z" fill="black"/>
</svg>
