<svg width="24" height="24" viewBox="0 0 24 24" fill="none" xmlns="http://www.w3.org/2000/svg">
<path fill-rule="evenodd" clip-rule="evenodd" d="M17.4 4.8C17.4 5.79411 18.2059 6.6 19.2 6.6C20.1941 6.6 21 5.79411 21 4.8C21 3.80589 20.1941 3 19.2 3C18.2059 3 17.4 3.80589 17.4 4.8ZM19.2 13.8C18.2059 13.8 17.4 12.9941 17.4 12C17.4 11.0059 18.2059 10.2 19.2 10.2C20.1941 10.2 21 11.0059 21 12C21 12.9941 20.1941 13.8 19.2 13.8ZM19.2 21C18.2059 21 17.4 20.1941 17.4 19.2C17.4 18.2059 18.2059 17.4 19.2 17.4C20.1941 17.4 21 18.2059 21 19.2C21 20.1941 20.1941 21 19.2 21ZM12 21C11.0059 21 10.2 20.1941 10.2 19.2C10.2 18.2059 11.0059 17.4 12 17.4C12.9941 17.4 13.8 18.2059 13.8 19.2C13.8 20.1941 12.9941 21 12 21ZM10.2 12C10.2 12.9941 11.0059 13.8 12 13.8C12.9941 13.8 13.8 12.9941 13.8 12C13.8 11.0059 12.9941 10.2 12 10.2C11.0059 10.2 10.2 11.0059 10.2 12ZM12 6.6C11.0059 6.6 10.2 5.79411 10.2 4.8C10.2 3.80589 11.0059 3 12 3C12.9941 3 13.8 3.80589 13.8 4.8C13.8 5.79411 12.9941 6.6 12 6.6ZM3 19.2C3 20.1941 3.80589 21 4.8 21C5.79411 21 6.6 20.1941 6.6 19.2C6.6 18.2059 5.79411 17.4 4.8 17.4C3.80589 17.4 3 18.2059 3 19.2ZM4.8 13.8C3.80589 13.8 3 12.9941 3 12C3 11.0059 3.80589 10.2 4.8 10.2C5.79411 10.2 6.6 11.0059 6.6 12C6.6 12.9941 5.79411 13.8 4.8 13.8ZM3 4.8C3 5.79411 3.80589 6.6 4.8 6.6C5.79411 6.6 6.6 5.79411 6.6 4.8C6.6 3.80589 5.79411 3 4.8 3C3.80589 3 3 3.80589 3 4.8Z" fill="black"/>
</svg>
