<svg width="24" height="24" viewBox="0 0 24 24" fill="none" xmlns="http://www.w3.org/2000/svg">
<path fill-rule="evenodd" clip-rule="evenodd" d="M15.5 3C16.0522 3 16.4999 3.44772 16.4999 4V5H18.4786C18.4933 4.99967 18.508 4.99967 18.5227 5H20.5C21.0523 5 21.5 5.44771 21.5 6C21.5 6.55228 21.0523 6.99999 20.5 6.99999H19.1487C18.5895 8.22826 17.7917 9.84885 16.9104 11.3978C17.3351 12.0935 17.7634 12.7361 18.1771 13.2767C18.7246 13.9924 19.1829 14.4435 19.5146 14.6425C19.9881 14.9267 20.1417 15.541 19.8576 16.0145C19.5734 16.4881 18.9591 16.6416 18.4856 16.3575C17.8172 15.9565 17.1714 15.2535 16.5886 14.4921C16.3082 14.1255 16.0273 13.7251 15.7501 13.3038C15.4729 13.7251 15.192 14.1255 14.9115 14.4921C14.3289 15.2535 13.683 15.9565 13.0147 16.3575C12.5411 16.6416 11.9268 16.4881 11.6427 16.0145C11.3585 15.541 11.5121 14.9267 11.9857 14.6425C12.3173 14.4435 12.7755 13.9924 13.3231 13.2767C13.7367 12.7361 14.1651 12.0935 14.5898 11.3978C13.7086 9.84883 12.9107 8.22826 12.3515 6.99999H11C10.4477 6.99999 10 6.55228 10 6C10 5.44771 10.4477 5 11 5H12.9775C12.9922 4.99967 13.0069 4.99967 13.0215 5H14.5V4C14.5 3.44772 14.9477 3 15.5 3ZM15.5 7L15.4973 6.99999H14.558C14.9046 7.72762 15.3106 8.53978 15.7501 9.3607C16.1897 8.53978 16.5957 7.72762 16.9422 6.99999H15.5026L15.5 7Z" fill="black"/>
<path fill-rule="evenodd" clip-rule="evenodd" d="M4.12856 20.0268L4.49376 16.1622H7.50624L7.87144 20.0268C7.92729 20.6179 8.44797 21.0514 9.03441 20.9951C9.62085 20.9388 10.051 20.414 9.99512 19.823L8.92848 8.53544C8.88846 8.11193 8.60439 7.75205 8.20394 7.61752L6.60397 7.08001C6.2864 6.97333 5.7136 6.97333 5.39603 7.08001L3.79606 7.61752C3.39561 7.75205 3.11154 8.11193 3.07152 8.53544L2.00488 19.823C1.94903 20.414 2.37915 20.9388 2.96559 20.9951C3.55203 21.0514 4.07271 20.6179 4.12856 20.0268ZM4.69808 14H4.5L5 9.5L6 9L7 9.5L7.5 14H7.30192L7.30307 14.0122H4.69693L4.69808 14Z" fill="black"/>
</svg>
