<svg width="24" height="25" viewBox="0 0 24 25" fill="none" xmlns="http://www.w3.org/2000/svg">
<path fill-rule="evenodd" clip-rule="evenodd" d="M3.99902 5.56274C3.45131 5.56274 2.99902 6.01503 2.99902 6.56274V18.5627C2.99902 19.1105 3.45131 19.5627 3.99902 19.5627H19.999C20.5467 19.5627 20.999 19.1105 20.999 18.5627V6.56274C20.999 6.01503 20.5467 5.56274 19.999 5.56274H3.99902ZM0.999023 6.56274C0.999023 4.91046 2.34674 3.56274 3.99902 3.56274H19.999C21.6513 3.56274 22.999 4.91046 22.999 6.56274V18.5627C22.999 20.215 21.6513 21.5627 19.999 21.5627H3.99902C2.34674 21.5627 0.999023 20.215 0.999023 18.5627V6.56274Z" fill="black"/>
<path fill-rule="evenodd" clip-rule="evenodd" d="M1.17988 5.98912C1.49659 5.53667 2.12012 5.42664 2.57257 5.74335L11.9991 12.3419L21.4256 5.74335C21.8781 5.42664 22.5016 5.53667 22.8183 5.98912C23.1351 6.44157 23.025 7.0651 22.5726 7.38182L12.5726 14.3818C12.2283 14.6228 11.77 14.6228 11.4256 14.3818L1.42565 7.38182C0.973198 7.0651 0.863163 6.44157 1.17988 5.98912Z" fill="black"/>
</svg>
