<svg width="24" height="24" viewBox="0 0 24 24" fill="none" xmlns="http://www.w3.org/2000/svg">
<path fill-rule="evenodd" clip-rule="evenodd" d="M4.8 0C2.14903 0 0 2.14903 0 4.8V19.2C0 21.8509 2.14903 24 4.8 24H19.2C21.8509 24 24 21.8509 24 19.2V4.8C24 2.14903 21.8509 0 19.2 0H4.8ZM17.4 14.2C17.7967 13.4146 18.0023 12.5466 18 11.6667V11.3333C17.9233 9.94378 17.3368 8.63132 16.3528 7.64725C15.3686 6.66319 14.0562 6.07668 12.6666 6.00002H12.3334C11.4534 5.99772 10.5854 6.2033 9.79999 6.60002C8.85883 7.0704 8.06722 7.79352 7.51381 8.68839C6.96041 9.58325 6.66707 10.6145 6.66666 11.6667C6.66437 12.5466 6.86995 13.4146 7.26666 14.2L6 18L9.79999 16.7333C10.5854 17.13 11.4534 17.3357 12.3334 17.3333C13.3855 17.3329 14.4168 17.0396 15.3116 16.4862C16.2065 15.9328 16.9296 15.1411 17.4 14.2Z" fill="black"/>
</svg>
