<svg width="24" height="24" viewBox="0 0 24 24" fill="none" xmlns="http://www.w3.org/2000/svg">
<path fill-rule="evenodd" clip-rule="evenodd" d="M8.99957 8.0257C8.46148 8.0257 8.02527 8.46191 8.02527 9V15C8.02527 15.5381 8.46148 15.9743 8.99957 15.9743H14.9996C15.5377 15.9743 15.9739 15.5381 15.9739 15V9C15.9739 8.46191 15.5377 8.0257 14.9996 8.0257H8.99957ZM9.97388 14.0257V9.9743H14.0253V14.0257H9.97388Z" fill="black"/>
<path fill-rule="evenodd" clip-rule="evenodd" d="M8.99957 0.0256348C9.53767 0.0256348 9.97388 0.461846 9.97388 0.999939V3.02563H14.0256V0.999939C14.0256 0.461846 14.4618 0.0256348 14.9999 0.0256348C15.538 0.0256348 15.9742 0.461846 15.9742 0.999939V3.02563H17.9997C19.6424 3.02563 20.974 4.35728 20.974 5.99994V8.0257H22.9998C23.5379 8.0257 23.9741 8.46191 23.9741 9C23.9741 9.53809 23.5379 9.9743 22.9998 9.9743H20.974V13.0258H22.9998C23.5379 13.0258 23.9741 13.462 23.9741 14.0001C23.9741 14.5382 23.5379 14.9744 22.9998 14.9744H20.974V17.9999C20.974 19.6426 19.6424 20.9742 17.9997 20.9742H15.9742V23.0001C15.9742 23.5382 15.538 23.9744 14.9999 23.9744C14.4618 23.9744 14.0256 23.5382 14.0256 23.0001V20.9742H9.97388V23.0001C9.97388 23.5382 9.53767 23.9744 8.99957 23.9744C8.46148 23.9744 8.02527 23.5382 8.02527 23.0001V20.9742H5.9997C4.35703 20.9742 3.02539 19.6426 3.02539 17.9999V14.9744H0.999695C0.461601 14.9744 0.0253906 14.5382 0.0253906 14.0001C0.0253906 13.462 0.461601 13.0258 0.999695 13.0258H3.02539V9.9743H0.999695C0.461601 9.9743 0.0253906 9.53809 0.0253906 9C0.0253906 8.46191 0.461601 8.0257 0.999695 8.0257H3.02539V5.99994C3.02539 4.35728 4.35703 3.02563 5.9997 3.02563H8.02527V0.999939C8.02527 0.461846 8.46148 0.0256348 8.99957 0.0256348ZM4.974 17.9999C4.974 18.5664 5.43322 19.0256 5.9997 19.0256H17.9997C18.5662 19.0256 19.0254 18.5664 19.0254 17.9999V5.99994C19.0254 5.43346 18.5662 4.97424 17.9997 4.97424H5.9997C5.43322 4.97424 4.974 5.43346 4.974 5.99994V17.9999Z" fill="black"/>
</svg>
