<svg width="24" height="24" viewBox="0 0 24 24" fill="none" xmlns="http://www.w3.org/2000/svg">
<path fill-rule="evenodd" clip-rule="evenodd" d="M6.1967 3.28348C3.26777 6.32812 3.26777 11.2645 6.1967 14.3091C7.42223 15.583 8.96638 16.3239 10.5625 16.5318L10.5625 21H8V23H10.5625H12.4375H15V21H12.4375L12.4375 16.5318C14.0336 16.3239 15.5778 15.583 16.8033 14.3091C19.7322 11.2645 19.7322 6.32812 16.8033 3.28348C13.8744 0.23884 9.12563 0.23884 6.1967 3.28348ZM7.52253 12.9309C9.71922 15.2144 13.2808 15.2144 15.4775 12.9309C17.6742 10.6474 17.6742 6.94516 15.4775 4.66168C13.2808 2.3782 9.71922 2.3782 7.52253 4.66168C5.32583 6.94516 5.32583 10.6474 7.52253 12.9309Z" fill="black"/>
</svg>
