<svg width="24" height="24" viewBox="0 0 24 24" fill="none" xmlns="http://www.w3.org/2000/svg">
<path fill-rule="evenodd" clip-rule="evenodd" d="M8.99592 1.96488C9.7482 1.33903 10.8391 0.982422 12 0.982422C13.1609 0.982422 14.2518 1.33903 15.0041 1.96488H16C17.1046 1.96488 18 2.8446 18 3.92979L19 3.92979C20.1046 3.92979 21 4.80951 21 5.8947V20.6315C21 21.7167 20.1046 22.5965 19 22.5965H5C3.89543 22.5965 3 21.7167 3 20.6315V5.8947C3 4.80951 3.89543 3.92979 5 3.92979H6V3.92979C6 2.8446 6.89543 1.96488 8 1.96488H8.99592ZM16 6.87716C16.7403 6.87716 17.3866 6.48202 17.7324 5.8947H19V20.6315H5V5.8947H6.26757C6.61338 6.48202 7.25972 6.87716 8 6.87716H16ZM11.701 13.6413C11.3119 14.0235 10.6884 14.0235 10.2993 13.6413L9.40186 12.7596C9.01627 12.3808 8.39826 12.3808 8.01267 12.7596C7.61731 13.148 7.61731 13.7852 8.01267 14.1736L10.2993 16.4201C10.6884 16.8024 11.3119 16.8024 11.701 16.4201L15.9876 12.2087C16.383 11.8203 16.383 11.1831 15.9876 10.7947C15.6021 10.4159 14.984 10.4159 14.5985 10.7947L11.701 13.6413ZM9.85769 3.92975L10.1567 3.59117C10.4853 3.21917 11.1895 2.94729 12.0001 2.94729C12.8107 2.94729 13.5149 3.21917 13.8434 3.59117L14.1425 3.92975H16.0001V4.9122H8.00008V3.92975H9.40142H9.85769Z" fill="black"/>
</svg>
