<svg width="24" height="24" viewBox="0 0 24 24" fill="none" xmlns="http://www.w3.org/2000/svg">
<path fill-rule="evenodd" clip-rule="evenodd" d="M8.99999 1H15C16.1046 1 17 1.89543 17 3V4H20C21.1046 4 22 4.89543 22 6V8C22 9.10457 21.1046 10 20 10H19.9199L19.0001 21C19.0001 22.1046 18.1047 23 17.0001 23H7.00008C5.89551 23 5.00008 22.1046 5.00354 21.083L4.07995 10H4C2.89543 10 2 9.10457 2 8V6C2 4.89543 2.89543 4 4 4H6.99999V3C6.99999 1.89543 7.89542 1 8.99999 1ZM17.9132 10L17.0035 20.917L17 21H7.00003L6.08652 10H17.9132ZM3.99999 8.00001V6.00001H20V8.00001H3.99999ZM15 3.00001V4.00001H9.00001V3.00001H15Z" fill="black"/>
</svg>
