<svg width="23" height="15" viewBox="0 0 23 15" fill="none" xmlns="http://www.w3.org/2000/svg">
<g clip-path="url(#clip0)">
<path d="M23 -0.166683H0V15.1668H23V-0.166683Z" fill="#F0F0F0"/>
<path d="M12.9375 -0.166817H10.0625V6.06232H0V8.93732H10.0625V15.1665H12.9375V8.93732H23V6.06232H12.9375V-0.166817Z" fill="#D80027"/>
<path d="M17.6896 10.1665L23 13.1168V10.1665H17.6896Z" fill="#0052B4"/>
<path d="M14 10.1665L23 15.1665V13.7526L16.5451 10.1665H14Z" fill="#0052B4"/>
<path d="M20.6027 15.1665L14 11.498V15.1665H20.6027Z" fill="#0052B4"/>
<path d="M14 10.1665L23 15.1665V13.7526L16.5451 10.1665H14Z" fill="#F0F0F0"/>
<path d="M14 10.1665L23 15.1665V13.7526L16.5451 10.1665H14Z" fill="#D80027"/>
<path d="M4.05829 10.1664L0 12.421V10.1664H4.05829Z" fill="#0052B4"/>
<path d="M9.00005 10.8022V15.1664H1.14514L9.00005 10.8022Z" fill="#0052B4"/>
<path d="M6.45496 10.1665L0 13.7526V15.1665L9.00001 10.1665H6.45496Z" fill="#D80027"/>
<path d="M5.31044 4.83317L0 1.88288V4.83317H5.31044Z" fill="#0052B4"/>
<path d="M9.00001 4.83317L0 -0.166817V1.24705L6.45496 4.83317H9.00001Z" fill="#0052B4"/>
<path d="M2.39734 -0.166817L9.00005 3.50168V-0.166817H2.39734Z" fill="#0052B4"/>
<path d="M9.00001 4.83317L0 -0.166817V1.24705L6.45496 4.83317H9.00001Z" fill="#F0F0F0"/>
<path d="M9.00001 4.83317L0 -0.166817V1.24705L6.45496 4.83317H9.00001Z" fill="#D80027"/>
<path d="M18.9418 4.83326L23.0001 2.57863V4.83326H18.9418Z" fill="#0052B4"/>
<path d="M14 4.19743V-0.166771H21.8549L14 4.19743Z" fill="#0052B4"/>
<path d="M16.5451 4.83317L23 1.24705V-0.166817L14 4.83317H16.5451Z" fill="#D80027"/>
</g>
<defs>
<clipPath id="clip0">
<rect width="23" height="15" fill="white"/>
</clipPath>
</defs>
</svg>
