<svg width="50" height="49" viewBox="0 0 50 49" fill="none" xmlns="http://www.w3.org/2000/svg">
<rect width="50" height="49" fill="#3796F6"/>
<rect x="9" width="32" height="49" fill="#0076ED"/>
<rect x="13" y="4" width="2" height="9" fill="#64B1FF"/>
<rect x="13" y="32" width="2" height="9" fill="#64B1FF"/>
<rect x="16" y="4" width="2" height="9" fill="#64B1FF"/>
<rect x="16" y="32" width="2" height="9" fill="#64B1FF"/>
<rect x="35" y="4" width="2" height="9" fill="#64B1FF"/>
<rect x="35" y="32" width="2" height="9" fill="#64B1FF"/>
<rect x="32" y="4" width="2" height="9" fill="#64B1FF"/>
<rect x="32" y="32" width="2" height="9" fill="#64B1FF"/>
<circle cx="6" cy="4" r="1" fill="#F3F3F3"/>
<circle cx="45" cy="4" r="1" fill="#F3F3F3"/>
<circle cx="6" cy="12" r="1" fill="#F3F3F3"/>
<circle cx="45" cy="12" r="1" fill="#F3F3F3"/>
<circle cx="6" cy="20" r="1" fill="#F3F3F3"/>
<circle cx="45" cy="20" r="1" fill="#F3F3F3"/>
<circle cx="6" cy="28" r="1" fill="#F3F3F3"/>
<circle cx="45" cy="28" r="1" fill="#F3F3F3"/>
<circle cx="6" cy="36" r="1" fill="#F3F3F3"/>
<circle cx="45" cy="36" r="1" fill="#F3F3F3"/>
<circle cx="6" cy="44" r="1" fill="#F3F3F3"/>
<circle cx="45" cy="44" r="1" fill="#F3F3F3"/>
</svg>
