<svg width="68" height="68" viewBox="0 0 68 68" fill="none" xmlns="http://www.w3.org/2000/svg">
<g clip-path="url(#clip0)">
<path d="M24.272 35.6493C26.8324 35.6493 28.6364 34.3461 28.6262 32.5012C28.6364 31.2185 27.7778 30.3139 26.0914 30.1299V30.0482C27.3383 29.9153 28.248 29.1129 28.2378 27.9426C28.248 26.1795 26.6126 24.8967 24.2924 24.8967C21.9211 24.8967 20.2347 26.251 20.2244 28.1675H22.9433C22.9535 27.5338 23.5105 27.084 24.2924 27.084C25.0079 27.084 25.5088 27.5184 25.4985 28.1266C25.5088 28.7603 24.9159 29.21 24.0676 29.21H23.0046V31.1725H24.0676C24.9875 31.1725 25.6314 31.6222 25.6212 32.2559C25.6314 32.905 25.0795 33.3598 24.2924 33.3598C23.4748 33.3598 22.8922 32.9254 22.8819 32.3172H20.02C20.0302 34.2695 21.7934 35.6493 24.272 35.6493Z" fill="#353541"/>
<path d="M34.2695 35.6493C36.743 35.6493 38.4704 34.1622 38.4602 31.9084C38.4704 29.9919 37.1877 28.5968 35.2916 28.5968C34.0958 28.5968 33.0123 29.1691 32.6137 30.1299H32.5524C32.5626 28.3974 33.0941 27.268 34.29 27.268C34.8879 27.268 35.4092 27.5338 35.5369 28.1675H38.3375C38.1587 26.3379 36.5999 24.8558 34.29 24.8558C31.5456 24.8558 29.7416 26.9614 29.7314 30.3957C29.7416 34.1979 31.8267 35.6493 34.2695 35.6493ZM34.2491 33.5029C33.4212 33.5029 32.8079 32.8743 32.7977 32.0106C32.8079 31.1469 33.4212 30.5183 34.2491 30.5183C35.0974 30.5183 35.7107 31.1469 35.7005 32.0106C35.7107 32.8743 35.0974 33.5029 34.2491 33.5029Z" fill="#353541"/>
<path d="M43.9374 35.6493C46.4876 35.6493 48.1536 34.1008 48.1485 31.9084C48.1536 29.9204 46.7636 28.515 44.8982 28.515C43.8352 28.515 42.9766 28.9852 42.6496 29.6189H42.5882L42.7927 27.3089H47.4944V25.0398H40.4622L40.0534 30.8045L42.5473 31.2951C42.7875 30.7841 43.3344 30.4774 43.9374 30.4774C44.8062 30.4774 45.4144 31.0754 45.4093 31.9902C45.4144 32.905 44.8062 33.5029 43.9374 33.5029C43.1862 33.5029 42.5678 33.0429 42.5473 32.3172H39.7876C39.803 34.2695 41.5252 35.6493 43.9374 35.6493Z" fill="#353541"/>
<path d="M63.0023 21.1972C62.707 20.2027 61.6391 18.555 58.5241 17.4523C57.3727 15.2729 55.7654 13.4395 54.0834 11.6672C61.2553 12.6122 66.3745 15.4119 67.6799 19.8083C69.1056 24.6096 65.6804 30.2975 59.1431 35.3386C57.1372 47.0706 46.9188 56 34.6149 56C27.4197 56 20.9378 52.9465 16.3943 48.0645C8.1207 47.4215 2.10953 44.5211 0.678884 39.703C-0.677629 35.1345 2.35758 29.7634 8.28667 24.9105C7.95273 26.6016 7.77767 28.3498 7.77767 30.1389C7.77767 30.7975 7.80139 31.4505 7.84803 32.0972C5.32881 35.0747 5.03603 37.2348 5.35649 38.314C5.76488 39.6894 7.96568 41.992 14.459 42.9433C18.7415 43.5706 24.084 43.4386 29.9364 42.3885L29.7518 41.8525C29.2627 40.4319 30.4948 39.0145 31.9697 39.3012L39.4363 40.7526C40.9112 41.0393 41.5226 42.8151 40.5369 43.9491L35.5466 49.6896C34.5609 50.8235 32.7173 50.4651 32.2281 49.0445L31.5426 47.0534C28.9375 47.5498 26.3997 47.8821 23.9694 48.0562C27.0524 49.9975 30.7025 51.1206 34.6149 51.1206C42.6777 51.1206 49.6265 46.3508 52.7935 39.4791C49.7046 41.1952 46.2429 42.7564 42.5021 44.0801L43.4644 42.9732C44.4501 41.8392 43.8387 40.0634 42.3638 39.7767L40.8616 39.4847C48.0297 36.9502 53.9369 33.5402 57.9012 30.044C62.8232 25.7031 63.4107 22.5726 63.0023 21.1972Z" fill="#3796F6"/>
<path d="M54.5959 30.1123C54.0736 19.5291 45.3275 11.109 34.6147 11.109C23.5659 11.109 14.609 20.0659 14.609 31.1147C14.609 34.5919 15.4961 37.8619 17.0563 40.7107C16.1534 40.6473 15.2862 40.5544 14.4586 40.4332C13.2575 40.2572 12.2032 40.0351 11.2801 39.781C10.2774 37.0823 9.72949 34.1625 9.72949 31.1147C9.72949 17.371 20.871 6.22949 34.6147 6.22949C46.7653 6.22949 56.8819 14.9376 59.0641 26.4534C58.7063 26.8046 58.3192 27.1648 57.9007 27.5339C56.9156 28.4027 55.8105 29.2662 54.5959 30.1123Z" fill="#353541"/>
</g>
<defs>
<clipPath id="clip0">
<rect width="68" height="68" fill="white"/>
</clipPath>
</defs>
</svg>
