<svg width="36" height="38" viewBox="0 0 36 38" fill="none" xmlns="http://www.w3.org/2000/svg">
<mask id="mask0" mask-type="alpha" maskUnits="userSpaceOnUse" x="1" y="4" width="35" height="31">
<path d="M20.5865 22.8661L20.5865 28.1812C20.5865 28.4956 20.557 28.8698 20.5049 29.2618L23.6347 31.6057C23.915 31.8155 23.9972 32.2392 23.8045 32.5416L23.8643 32.4478C23.6763 32.7426 23.2247 32.9665 22.8661 32.9309L19.5324 32.6006C19.1514 33.4233 18.5344 34.4307 17.7972 34.4307C17.0602 34.4307 16.4472 33.4241 16.0694 32.6015L12.7454 32.9309C12.3868 32.9665 11.9351 32.7426 11.7472 32.4478L11.8069 32.5416C11.6143 32.2392 11.6965 31.8155 11.9766 31.6057L15.109 29.2601C15.0556 28.8676 15.025 28.494 15.025 28.1812L15.025 22.9214L3.38528 23.5008C3.02838 23.5185 2.51394 23.3425 2.23318 23.1048L2.18343 23.0627C1.90404 22.8263 1.68237 22.3407 1.68835 21.9768L1.69762 21.4118C1.70359 21.0485 1.97118 20.6224 2.29192 20.4618L15.025 14.0857L15.025 9.31761C15.025 8.41423 15.3536 7.02143 15.8015 6.24088C15.8015 6.24088 16.4921 4.41812 17.8065 4.41812C19.121 4.41812 19.8107 6.24088 19.8107 6.24088C20.2391 7.03676 20.5865 8.42201 20.5865 9.31761L20.5865 13.5288L34.4318 20.4618C34.7525 20.6224 35.0202 21.0485 35.0261 21.4118L35.0354 21.9768C35.0414 22.3407 34.8197 22.8263 34.5403 23.0627L34.4906 23.1048C34.2098 23.3425 33.6954 23.5185 33.3385 23.5008L20.5865 22.8661Z" fill="white"/>
</mask>
<g mask="url(#mask0)">
<path d="M20.5865 22.8663L20.5865 28.1814C20.5865 28.4959 20.557 28.87 20.5049 29.2621L23.6347 31.606C23.915 31.8158 23.9972 32.2394 23.8045 32.5418L23.8643 32.4481C23.6763 32.7429 23.2247 32.9667 22.8661 32.9312L19.5324 32.6008C19.1514 33.4236 18.5344 34.4309 17.7972 34.4309C17.0602 34.4309 16.4472 33.4243 16.0694 32.6018L12.7454 32.9312C12.3868 32.9667 11.9351 32.7429 11.7472 32.4481L11.8069 32.5418C11.6143 32.2394 11.6965 31.8158 11.9766 31.606L15.109 29.2603C15.0556 28.8678 15.025 28.4942 15.025 28.1814L15.025 22.9217L3.38528 23.501C3.02838 23.5188 2.51394 23.3427 2.23318 23.1051L2.18343 23.0629C1.90404 22.8265 1.68237 22.341 1.68835 21.977L1.69762 21.412C1.70359 21.0488 1.97118 20.6227 2.29192 20.4621L15.025 14.086L15.025 9.31785C15.025 8.41447 15.3536 7.02167 15.8015 6.24112C15.8015 6.24112 16.4921 4.41836 17.8065 4.41836C19.121 4.41836 19.8107 6.24112 19.8107 6.24112C20.2391 7.03701 20.5865 8.42226 20.5865 9.31785L20.5865 13.5291L34.4318 20.4621C34.7525 20.6227 35.0202 21.0488 35.0261 21.412L35.0354 21.977C35.0414 22.341 34.8197 22.8265 34.5403 23.0629L34.4906 23.1051C34.2098 23.3427 33.6954 23.5188 33.3385 23.501L20.5865 22.8663Z" fill="white"/>
<path opacity="0.9" fill-rule="evenodd" clip-rule="evenodd" d="M20.7 12.1132L20.9559 12.1132L20.9559 23.9392L20.7 23.9392L20.7 12.1132Z" fill="#EBECF2"/>
<path fill-rule="evenodd" clip-rule="evenodd" d="M0.576665 20.857C0.576665 20.5005 0.852559 20.0844 1.17958 19.9335L15.0364 13.5422L15.0364 23.7908L2.28438 24.4255C1.92745 24.4433 1.41302 24.2672 1.13223 24.0296L1.08254 23.9874C0.803095 23.751 0.576666 23.2739 0.576666 22.9138L0.576665 20.857Z" fill="#DEE1E3"/>
<path opacity="0.4" fill-rule="evenodd" clip-rule="evenodd" d="M19.7471 32.5275C19.9348 32.0082 20.0383 31.6199 20.0383 31.6199C20.3353 30.7624 20.5579 29.3663 20.5841 28.4015L23.6706 31.2906C23.9405 31.5433 24.021 32.0034 23.8571 32.3247L23.8122 32.4126C23.6509 32.7289 23.225 32.9583 22.8664 32.9139L19.7471 32.5275Z" fill="#DEE1E3"/>
<path fill-rule="evenodd" clip-rule="evenodd" d="M12.8041 23.4563L15.7288 23.2892L15.7288 12.5716L14.4351 13.3153L12.8041 23.4563Z" fill="#C5C6CC"/>
<path fill-rule="evenodd" clip-rule="evenodd" d="M14.9677 4.29374L14.9677 34.416C14.9677 34.416 16.8684 34.387 18.4034 34.387C18.4219 34.387 18.4404 34.3866 18.4587 34.3857C17.6627 33.4036 16.3377 31.2918 16.3377 28.6232L16.3377 7.76948C16.3377 5.45236 17.5975 4.27657 18.1035 3.7196C16.6877 3.91936 14.9677 4.29374 14.9677 4.29374Z" fill="#DEE1E3"/>
</g>
</svg>
